<?xml version="1.0" encoding="utf-8"?>
<!-- Generator: Adobe Illustrator 22.1.0, SVG Export Plug-In . SVG Version: 6.00 Build 0)  -->
<svg version="1.1" id="Layer_1" xmlns="http://www.w3.org/2000/svg" xmlns:xlink="http://www.w3.org/1999/xlink" x="0px" y="0px"
	 viewBox="0 0 708.7 198.4" style="enable-background:new 0 0 708.7 198.4;" xml:space="preserve">
<style type="text/css">
	.st0{fill:#1D7391;}
	.st1{fill:#F7941D;}
</style>
<g>
	<g>
		<path class="st0" d="M285.4,142.1l13.5-16.1c7.8,6.4,17.5,10.8,27.6,10.8c10,0,14.6-3.9,14.6-8.9c0-7.5-6.2-9.3-16-13.4l-13.5-5.8
			c-11.5-4.4-22-13.2-22-28.3c0-17.2,15.5-30.9,38-30.9c12.5,0,25.1,4.7,34.4,13.6L350.1,78c-7.3-5.2-13.8-8.1-23.9-8.1
			c-7.7,0-13,3.2-13,9.3c0,6.2,6.9,8.5,16.9,12.2l12.7,5.4c13.6,5.1,22.1,13.6,22.1,28.2c0,17.2-14.5,32.2-40.1,32.2
			C310.9,157.1,296.4,152,285.4,142.1z"/>
		<path class="st0" d="M391,51.5h28.1l32.3,103.7h-24.9l-13.4-52.5c-2.6-10.4-5.8-22.5-8.3-33.4h-0.6c-2.5,10.9-5.4,23.1-8,33.4
			l-13.5,52.5h-24L391,51.5z M380.1,112.3h49.6v18.3h-49.6V112.3z"/>
		<path class="st0" d="M546.8,51.5h68.7v19.7h-45.3V92h38.5v19.7h-38.5v23.9h46.8v19.7h-70.3V51.5z"/>
		<path class="st0" d="M622.5,51.5h36.9c22,0,40,7.6,40,32.3c0,23.8-18.1,34.1-40,34.1H646v37.3h-23.5V51.5z M657.5,99.3
			c12.3,0,18.9-5.3,18.9-15.5c0-10.2-6.6-13.7-18.9-13.7H646v29.1H657.5z M671.3,96.7l33.1,58.5h-26.2l-23.1-43.5L671.3,96.7z"/>
	</g>
	<g>
		<path class="st1" d="M81.3,61.1C75.6,68.4,66.8,80,55.4,97c3.7,0.1,7.3,0.4,10.6,0.9c3.2,0.4,4.5,1.9,4.5,3.7c0,1.1-2.8,3.8-4.1,5
			c-1.5,1.7-1.7,3.2-3.8,3.2c-1.7,0-1.4-0.1-2.1-0.3c-1.9-0.1-4.8-0.2-8.4-0.2c-1.4,0-3,0.1-4.7,0.1c-9.3,14.4-25.1,39-25.9,40.6
			c-1.1,2.1-2.1,3.4-4.9,3.4c-0.8,0-1.7-0.1-2.9-0.4c-4-0.7-5.8-1.4-5.8-3.4c0-0.6,0.3-1.5,0.6-2.6c1.5-4.3,15.3-24.4,24.1-37.1
			c-10.3,0.5-20,1.2-23.1,1.5c-0.7,0.1-2.2,0.9-3.4,0.9c-1.3,0-2-1.2-2-2.5c0-0.4,0.1-0.9,0.3-1.3c1.7-4,2.6-4,3.2-5.3
			c0.6-1.3,3-4,5.1-4.5c1.4-0.3,14-1.7,29-1.8c5-7.6,14.9-22.3,23.4-32.3C59,65.7,49,67,32.4,67C11.9,67,5.9,61.9,5.9,55.1
			c0-4.3,4.7-8.4,12.2-8.4c3.8,0,5,0.7,5,1.2c0,0.4-0.5,0.6-1.2,0.6c-2.9,0-4.8,2.2-4.8,3.4c0,1.1,4.5,3.2,22.2,3.2
			c16.7,0,29.2-1.2,38.4-2.7c6.8-5.6,13.1-9.4,21.8-9.4c3,0,5,1.1,6.2,2.8c0.6,0.9,1.2,1.8,1.3,2.7C106.9,52.2,97.8,60,81.3,61.1z
			 M94.7,48.6c1.8-0.7,2.8-1,2.8-1.1C96.5,47.7,95.6,48.2,94.7,48.6z"/>
		<path class="st1" d="M101,126.9c0,0.9-0.1,1.8-0.3,2.4c-1.5,2.9-9.9,12-17.3,12c-3.3,0-8.1-1.9-8.1-7.1c0-2.3,0.3-6,2.4-9.7
			c-5.4,6.8-14.5,17.2-21.5,17.2c-4.3,0-6.9-3.8-6.9-7.2c0-8,7.8-20.3,10.3-24.8C65,100.1,67,96.1,70,96.1c1.9,0,3.8,2.5,3.8,3.6
			c0,1.9-14.6,25.6-14.6,30.4c0,0.6,0.2,0.8,0.6,0.8c3.9,0,23.7-22.8,25.6-26.5c2.2-4.3,4.5-7.3,5.4-7.9c0.8-0.6,3.6-1.6,6.1-1.7
			c0.3,0,0.6,0,0.9,0.1c0.6,0.1,1.3,1.8,1.3,2.3c0,0.1-0.1,0.2-0.1,0.2c-4.8,9.2-7.3,12.9-8.7,15.6c-1.7,3.4-6.5,13.1-6.5,17.6
			c0,1.4,0.5,2.3,1.8,2.3c4.6-0.7,11.8-9.6,12.8-10.5c0.4-0.3,0.8-0.5,1.2-0.5c0.6,0,1.1,0.4,1.2,1.1
			C100.8,123.7,101,125.4,101,126.9z"/>
		<path class="st1" d="M144.3,131.7c-4,3.7-10.4,9.5-17,9.5c-4.4-0.1-9.3-3.5-9.3-9c0-7,6-16.4,10.7-23.2c0.6-0.8,2.8-4.1,2.9-5.2
			l-0.1-0.1c-2.9,0.2-17.8,16-20.6,19c-4.1,4.6-7.9,9.4-11.5,14.3c-0.8,1-2.2,2.4-3.5,2.4c-0.9,0-4.4-1.4-5.1-1.9
			c-0.4-0.2-0.4-0.6-0.4-0.9c0-1.8,2.1-4.8,3.3-6.8c4.8-8.3,9.6-16.4,14.5-24.5c1.6-2.7,2.9-5.4,4.9-7.8c1.9-2.4,5.5-3.1,8.4-3.1
			c1.2,0,1.3,1.2,1.3,2.2c0,2.6-5.5,10.2-7.1,12.8c5.3-5.9,13.8-14.8,22.3-14.8c2.8,0,5.2,1.9,5.2,5c0,3.4-6.7,12.3-8.8,15.6
			c-1.8,2.8-8,12-8,15.8c0,1.8,1.7,2.4,3.3,2.4c5.2,0,14.2-11.3,15.8-11.3c1.5,0,1.4,4,1.4,5C146.9,128.8,146.2,130.6,144.3,131.7z"
			/>
		<path class="st1" d="M170,107.2c-1.8,0-2-0.9-2-2.5c0-0.6,0.1-1,0.2-1.4c-1.6,0.6-3.1,1.3-4.5,2.2c-1.8,1-9.4,6-9.4,8
			c0,0.4,0.9,0.4,1.1,0.4c3,0,5.5-1.8,8.3-1.8c0.3,0,0.8,0,1.1,0.1c0.9,0.5,2.4,2.8,2.4,3.6c0,0.9-1.2,1.9-1.9,2.5
			c-1.6,1.3-3.5,1.4-5.2,2.4c-2.3,1.3-11.7,6.5-11.7,8.9c0,3.9,4.4,4.3,7.3,4.3c8.1,0,15.7-7.6,20.8-11.4c0.3-0.2,0.8-0.6,1.3-0.6
			c1.4,0,1.4,3.4,1.4,4.4c0,0.9,0,2-0.3,3c-0.3,0.9-1.4,1.9-2.3,2.6c-5.3,4.3-13.4,9.6-22.4,9.6c-6.6,0-15.2-2-15.2-10.2
			c0-6.1,5.4-9.6,10.6-11.5c-3-1.4-3.3-3.5-3.3-6.5c0-10.9,18.3-18.7,27.7-18.7c1.9,0,5.6,1,5.6,3.4
			C179.7,102.9,174.9,107.2,170,107.2z"/>
		<path class="st1" d="M212,115c-0.8,1-1.7,1.8-3.1,1.8c-2.4,0-3.6-2.1-3.6-4.3c0-3.2,2.2-6.4,4.1-8.6l-0.1-0.1
			c-2.9,0.2-17.8,16-20.6,19c-4.1,4.5-8,9.3-11.7,14.3c-0.7,1-2.1,2.4-3.4,2.4c-0.9,0-4.5-1.4-5.1-1.9c-0.4-0.2-0.4-0.6-0.4-0.9
			c0-1.9,2.1-4.7,3.3-6.8c4.8-8.3,9.6-16.4,14.5-24.5c1.6-2.7,2.9-5.4,4.9-7.8c1.9-2.4,5.5-3.1,8.4-3.1c1.1,0,1.3,1.2,1.3,2.2
			c0,2.6-5.5,10.2-7.1,12.8c5.2-5.9,13.8-14.8,22.2-14.8c2.9,0,5.2,1.9,5.2,5C220.7,102.5,214.2,112.1,212,115z"/>
		<path class="st1" d="M259.6,126.9c0,0.9-0.1,1.8-0.3,2.4c-1.5,2.9-9.9,12-17.3,12c-5.7,0-8.2-4.6-8.2-9.2c0-1.8,0.4-3.6,1.1-5.2
			c-6.1,7.9-15,14.3-20.6,14.3c-4.8,0-8.1-3.6-8.6-7.6c-0.2-0.9-0.2-1.8-0.2-2.8c0-16.4,20.8-33.8,33-33.8c4.3,0,6.6,1.7,7.2,3.5
			c1.8-2.8,2.7-3,5-3c2.3,0,4.2,0.9,4.2,2.9c0,0.8-0.3,1.8-0.8,2.3c-0.8,0.9-10.1,16-11.9,25.9c-0.1,0.4-0.2,0.9-0.2,1.5
			c0,1.4,0.4,3,1.8,3c4.4,0,12.2-9.8,13.1-10.6c0.4-0.3,0.8-0.5,1.2-0.5c0.6,0,1.1,0.4,1.2,1.1C259.4,123.7,259.6,125.4,259.6,126.9
			z M223.8,113.9c-4.9,5-9.6,13.4-9.6,16.7c0,0.9,0.3,1.4,1.1,1.4c2.1,0,14.7-11,18.9-16.2c2.5-3.1,6.2-8.5,9.2-12.4
			C239.6,103.4,232.3,105,223.8,113.9z"/>
		<path class="st1" d="M266.1,122.5c-0.2,1.8-0.9,3.5-0.9,5.3c0,3.5,2.6,5.5,6,5.5c6.9,0,14.5-11.4,16.9-11.4c1.4,0,1.4,3.1,1.4,4
			v1.1c0,2.5-1.3,3.8-2.6,5.2c-4.5,5.1-12.6,9.2-19.4,9.2c-7.3,0-10.8-4.8-10.8-11.9c0-15.3,10-37.7,18.8-50.1
			c6.8-9.6,9.5-15.8,17.1-15.8c3.4,0,6.7,2.2,6.7,5.7C299.3,82.2,275.5,112,266.1,122.5z M289.1,74.3c-2.9,0-10.3,12.9-12.5,16.9
			c-3.1,5.5-6.2,12.7-8.2,18.7c5.4-6.4,21.3-28.8,21.3-34.7C289.6,74.7,289.5,74.3,289.1,74.3z"/>
	</g>
	<g>
		<path class="st1" d="M554.2,34.2c-50.2,0-58.6-19.1-58.7-19.2c-0.4-0.9-1.3-1.6-2.3-1.6h0c-1,0-1.9,0.6-2.3,1.5
			c-0.1,0.2-8.7,19.3-58.7,19.3c-1.4,0-2.5,1.1-2.5,2.5v85.3c0,34.9,60,61.6,62.5,62.7c0.3,0.2,0.7,0.2,1,0.2c0.3,0,0.7-0.1,1-0.2
			c2.6-1.1,62.5-27.8,62.5-62.7V36.7C556.7,35.4,555.6,34.2,554.2,34.2L554.2,34.2z M542.9,117.1c0,27.3-47,48.2-49,49.1
			c-0.2,0.1-0.5,0.2-0.8,0.2s-0.5,0-0.8-0.2c-2-0.9-48.9-21.8-48.9-49.1V50.3c0-1.1,0.9-2,2-2c39.1,0,45.9-14.9,46-15.1
			c0.3-0.7,1-1.2,1.8-1.2h0c0.8,0,1.5,0.5,1.8,1.2c0.1,0.1,6.7,15,46,15c1.1,0,2,0.9,2,2V117.1z M542.9,117.1"/>
	</g>
	<path class="st0" d="M579.8,15.8c-46.3,28.4-79.7,64.3-93.3,80.2l-34.8-27.3c-1-0.7-20,16.3-19.5,16.8l63.4,64.5
		c0.5,0.5,1.1,0.8,1.8,0.8c0.1,0,0.3,0,0.5-0.1c0.9-0.2,1.6-0.8,1.9-1.6c10.2-26.1,43.9-80.8,87-120.4c0.8-0.7,1.1-1.9,0.6-2.8
		C587.4,25.9,580.5,15.4,579.8,15.8L579.8,15.8z M579.8,15.8"/>
</g>
</svg>
